<svg xmlns="http://www.w3.org/2000/svg" version="1.1" xmlns:xlink="http://www.w3.org/1999/xlink" width="52" height="52" x="0" y="0" viewBox="0 0 100 100" style="enable-background:new 0 0 512 512" xml:space="preserve" class=""><g><path d="M87.2 64.7c-2.9 0-5.3 2-6 4.7H75V58h.9C86.1 58 95 49.1 95 39c0-8.8-5.1-15.7-13.4-18.2-.8-6.4-5-11.6-11.1-13.9s-12.8-1-17.6 3.2C48.2 8 42.4 8 37.2 10.2c-4.5 1.9-7.9 5.3-9.5 9.4-3-.2-6 .8-8.3 2.9s-3.6 4.9-3.6 7.9C9.5 31.9 5 37.4 5 44.1c0 7.6 6.4 14 14 14h6v11.3h-6.2c-.7-2.7-3.1-4.7-6-4.7-3.4 0-6.2 2.8-6.2 6.2s2.8 6.2 6.2 6.2c2.9 0 5.3-2 6-4.7h7.7c.8 0 1.5-.7 1.5-1.5V58h8.8v15.5L31 79.3c-.9-.6-2-.9-3.2-.9-3.4 0-6.2 2.8-6.2 6.2s2.8 6.2 6.2 6.2S34 88 34 84.6c0-1.2-.3-2.2-.9-3.2l6.1-6.1c.3-.3.4-.7.4-1.1V58h8.8v24.1c-2.7.7-4.7 3.1-4.7 6 0 3.4 2.8 6.2 6.2 6.2s6.2-2.8 6.2-6.2c0-2.9-2-5.3-4.7-6V58h8.8v16.2c0 .4.2.8.4 1.1l6.1 6.1c-.6.9-.9 2-.9 3.2 0 3.4 2.8 6.2 6.2 6.2s6.2-2.8 6.2-6.2-2.8-6.2-6.2-6.2c-1.2 0-2.2.3-3.2.9l-5.7-5.7V58H72v12.8c0 .8.7 1.5 1.5 1.5h7.7c.7 2.7 3.1 4.7 6 4.7 3.4 0 6.2-2.8 6.2-6.2s-2.8-6.1-6.2-6.1zM12.8 74c-1.7 0-3.2-1.4-3.2-3.2 0-1.7 1.4-3.2 3.2-3.2 1.7 0 3.2 1.4 3.2 3.2S14.5 74 12.8 74zm15.1 13.7c-1.7 0-3.2-1.4-3.2-3.2 0-1.7 1.4-3.2 3.2-3.2 1.7 0 3.2 1.4 3.2 3.2-.1 1.8-1.5 3.2-3.2 3.2zm25.3.4c0 1.7-1.4 3.2-3.2 3.2-1.7 0-3.2-1.4-3.2-3.2 0-1.7 1.4-3.2 3.2-3.2 1.7 0 3.2 1.4 3.2 3.2zm22.1-3.6c0 1.7-1.4 3.2-3.2 3.2-1.7 0-3.2-1.4-3.2-3.2 0-1.7 1.4-3.2 3.2-3.2 1.8.1 3.2 1.5 3.2 3.2zM8 44.1c0-5.7 3.9-10.2 9.6-10.9.8-.1 1.4-.8 1.3-1.6-.2-2.6.7-5 2.6-6.8 1.5-1.4 3.5-2.2 5.5-2.2.5 0 1 0 1.5.1.8.1 1.5-.3 1.7-1.1 1-3.7 4-6.9 8.2-8.7 4.7-2 10.1-1.9 14.1.2.6.3 1.3.2 1.8-.3 4-4 9.8-5.3 15.2-3.3 5.3 2 8.9 6.7 9.3 12.4 0 .6.5 1.2 1.1 1.3C87.4 25.3 92 31.3 92 39c0 8.5-7.5 16-16.1 16H19c-6 0-11-5-11-10.9zM87.2 74c-1.7 0-3.2-1.4-3.2-3.2 0-1.7 1.4-3.2 3.2-3.2 1.7 0 3.2 1.4 3.2 3.2S89 74 87.2 74z" fill="#0D6EFD" opacity="1" data-original="#000000" class=""></path></g></svg>