<svg xmlns="http://www.w3.org/2000/svg" version="1.1" xmlns:xlink="http://www.w3.org/1999/xlink" width="28" height="28" x="0" y="0" viewBox="0 0 64 64" style="enable-background:new 0 0 512 512" xml:space="preserve" class=""><g><path d="M5.199 51.071c1.381 1.942 3.883 2.93 7.269 2.93 1.88 0 4.031-.305 6.415-.92a43.38 43.38 0 0 0 3.227-.992C24.513 58.203 28.025 62 32.001 62s7.488-3.797 9.891-9.911c1.096.377 2.179.722 3.227.992 2.384.616 4.535.92 6.415.92 3.385 0 5.888-.988 7.269-2.93 2.913-4.093-.018-11.435-6.886-19.071 6.869-7.636 9.799-14.978 6.886-19.071-2.147-3.021-7.007-3.735-13.684-2.01a43.38 43.38 0 0 0-3.227.992C39.489 5.797 35.977 2 32.001 2s-7.488 3.797-9.891 9.911a43.092 43.092 0 0 0-3.227-.992c-6.676-1.725-11.536-1.011-13.684 2.01-2.913 4.093.018 11.435 6.886 19.071-6.869 7.636-9.799 14.978-6.886 19.071zM32 60c-3.095 0-5.944-3.328-7.996-8.594 2.594-1.009 5.284-2.288 7.996-3.797 2.713 1.509 5.402 2.789 7.996 3.797C37.943 56.672 35.095 60 32 60zM20.785 32c0-1.957.087-3.873.249-5.729A80.992 80.992 0 0 1 32 18.698a80.992 80.992 0 0 1 10.966 7.573 65.977 65.977 0 0 1 0 11.458A80.992 80.992 0 0 1 32 45.302a80.992 80.992 0 0 1-10.966-7.573A65.96 65.96 0 0 1 20.785 32zm-1.889 3.918A67.177 67.177 0 0 1 14.795 32a67.177 67.177 0 0 1 4.101-3.918c-.071 1.281-.111 2.587-.111 3.919s.04 2.637.111 3.918zm2.447-12.452c.438-3.291 1.118-6.334 1.987-8.99 2.154.84 4.382 1.883 6.634 3.087a83.142 83.142 0 0 0-8.621 5.903zm12.693-5.902c2.253-1.204 4.48-2.248 6.634-3.087.869 2.655 1.549 5.698 1.987 8.99a83.782 83.782 0 0 0-8.621-5.903zm11.068 10.517A66.88 66.88 0 0 1 49.205 32a67.488 67.488 0 0 1-4.101 3.919c.071-1.281.111-2.587.111-3.919s-.04-2.637-.111-3.919zm-5.442 14.686a85.711 85.711 0 0 0 2.995-2.234c-.438 3.291-1.118 6.334-1.987 8.99-2.154-.84-4.382-1.883-6.634-3.087a83.142 83.142 0 0 0 5.626-3.669zm-15.324 0a83.782 83.782 0 0 0 5.626 3.669c-2.253 1.204-4.48 2.248-6.634 3.087-.869-2.655-1.549-5.698-1.987-8.99.967.754 1.964 1.5 2.995 2.234zm32.834 7.145c-1.611 2.264-5.824 2.712-11.554 1.232a41.413 41.413 0 0 1-3.048-.935c1.105-3.329 1.905-7.22 2.32-11.477a72.012 72.012 0 0 0 5.665-5.268c6.358 7.111 8.728 13.479 6.616 16.448zM45.618 12.855c2.224-.575 4.219-.858 5.923-.858 2.686 0 4.645.706 5.631 2.091 2.112 2.969-.259 9.337-6.616 16.448a71.635 71.635 0 0 0-5.665-5.268c-.415-4.258-1.215-8.148-2.32-11.477a41.413 41.413 0 0 1 3.048-.935zM32 4c3.095 0 5.944 3.328 7.996 8.594-2.594 1.009-5.284 2.288-7.996 3.797-2.713-1.509-5.402-2.789-7.996-3.797C26.057 7.328 28.905 4 32 4zM6.828 14.088c1.611-2.264 5.823-2.714 11.554-1.232.989.255 2.012.58 3.048.935-1.105 3.329-1.905 7.22-2.32 11.477a72.012 72.012 0 0 0-5.665 5.268c-6.357-7.111-8.729-13.479-6.617-16.448zm6.616 19.376a71.635 71.635 0 0 0 5.665 5.268c.415 4.258 1.215 8.148 2.32 11.477-1.036.355-2.059.68-3.048.935-5.729 1.48-9.941 1.032-11.554-1.232-2.112-2.969.259-9.337 6.616-16.448z" fill="#FFFFFF" opacity="1" data-original="#000000" class=""></path><path d="M31.726 39.319c4.187 0 7.593-3.407 7.593-7.594s-3.406-7.593-7.593-7.593-7.594 3.406-7.594 7.593 3.406 7.594 7.594 7.594zm0-13.187c3.084 0 5.593 2.509 5.593 5.593s-2.509 5.594-5.593 5.594-5.594-2.509-5.594-5.594 2.51-5.593 5.594-5.593z" fill="#FFFFFF" opacity="1" data-original="#000000" class=""></path></g></svg>