<svg width="32" height="32" viewBox="0 0 32 32" fill="none" xmlns="http://www.w3.org/2000/svg">
<g clip-path="url(#clip0_746_18)">
<path d="M32 0H0V32H32V0Z" fill="black"/>
<mask id="mask0_746_18" style="mask-type:luminance" maskUnits="userSpaceOnUse" x="5" y="12" width="22" height="9">
<path d="M27 12H5V20.4615H27V12Z" fill="white"/>
</mask>
<g mask="url(#mask0_746_18)">
<mask id="mask1_746_18" style="mask-type:luminance" maskUnits="userSpaceOnUse" x="5" y="12" width="22" height="9">
<path d="M27 12H5V20.4615H27V12Z" fill="white"/>
</mask>
<g mask="url(#mask1_746_18)">
<path d="M10.2241 12.0005C9.36529 12.0005 8.54114 12.342 7.9336 12.9495L5.95107 14.932C5.64309 15.2312 5.39765 15.5887 5.22903 15.9835C5.0604 16.3783 4.97196 16.8028 4.96884 17.2322C4.96571 17.6615 5.04797 18.0872 5.21082 18.4844C5.37368 18.8817 5.61389 19.2426 5.91748 19.5462C6.22106 19.8499 6.58198 20.0901 6.97924 20.253C7.3765 20.4159 7.80218 20.4983 8.23154 20.4951C8.66089 20.492 9.08534 20.4037 9.48021 20.2351C9.8751 20.0665 10.2325 19.8211 10.5317 19.5131L11.9033 18.1419L15.8989 14.1459C16.086 13.9587 16.3179 13.8226 16.5726 13.7506C16.8273 13.6787 17.0962 13.6733 17.3536 13.7349C17.611 13.7966 17.8483 13.9231 18.0428 14.1027C18.2372 14.2822 18.3824 14.5086 18.4644 14.7603L19.7251 13.4991C19.4646 13.09 19.1155 12.7447 18.7036 12.4885C18.2918 12.2324 17.8277 12.072 17.3455 12.0192C16.8634 11.9665 16.3756 12.0226 15.918 12.1835C15.4605 12.3445 15.0449 12.6061 14.7019 12.9491L9.3361 18.3171C9.19239 18.4608 9.02179 18.5749 8.83403 18.6526C8.64625 18.7304 8.445 18.7704 8.24175 18.7704C8.03851 18.7706 7.83724 18.7305 7.64945 18.6527C7.46168 18.575 7.29105 18.4609 7.14731 18.3172C7.00358 18.1735 6.88956 18.003 6.81176 17.8152C6.73396 17.6275 6.69391 17.4262 6.69389 17.2229C6.69388 17.0197 6.73388 16.8185 6.81165 16.6307C6.88941 16.4428 7.0034 16.2723 7.1471 16.1285L9.12964 14.1459C9.31672 13.9587 9.54869 13.8226 9.80339 13.7506C10.0581 13.6787 10.327 13.6733 10.5844 13.7349C10.8418 13.7966 11.0791 13.9231 11.2735 14.1027C11.468 14.2822 11.6132 14.5086 11.6952 14.7603L12.956 13.4995C12.6635 13.0399 12.2597 12.6616 11.7821 12.3996C11.3045 12.1375 10.7689 12.0003 10.2241 12.0005Z" fill="white"/>
<path d="M16.1075 18.3221C15.9205 18.5093 15.6885 18.6454 15.4338 18.7174C15.1791 18.7894 14.9102 18.7949 14.6528 18.7333C14.3956 18.6717 14.1582 18.5451 13.9637 18.3656C13.7693 18.1862 13.6241 17.9598 13.542 17.7082L12.2812 18.9689C12.5418 19.3779 12.8909 19.7231 13.3027 19.9792C13.7146 20.2352 14.1787 20.3955 14.6608 20.4482C15.1429 20.501 15.6306 20.4449 16.0881 20.2839C16.5455 20.123 16.9611 19.8614 17.304 19.5185L22.6712 14.1514C22.9613 13.8612 23.3549 13.6982 23.7652 13.6982C24.1756 13.6982 24.5691 13.8612 24.8592 14.1514C25.1494 14.4415 25.3124 14.8351 25.3124 15.2455C25.3124 15.6558 25.1494 16.0494 24.8592 16.3395L22.8763 18.3221C22.6893 18.5093 22.4573 18.6454 22.2027 18.7174C21.948 18.7893 21.6791 18.7947 21.4218 18.7331C21.1644 18.6715 20.9271 18.5449 20.7327 18.3653C20.5382 18.1858 20.3931 17.9594 20.3112 17.7077L19.0504 18.9689C19.3111 19.378 19.66 19.7233 20.0719 19.9793C20.4838 20.2354 20.9479 20.3958 21.4299 20.4485C21.912 20.5013 22.3997 20.4452 22.8572 20.2843C23.3147 20.1234 23.7303 19.8619 24.0732 19.5189L26.0557 17.536C26.6488 16.9256 26.9778 16.1063 26.9717 15.2553C26.9656 14.4042 26.6248 13.5898 26.023 12.988C25.4213 12.3862 24.6069 12.0453 23.7559 12.0391C22.9048 12.033 22.0855 12.3619 21.475 12.9549L16.1075 18.3221Z" fill="white"/>
</g>
</g>
</g>
<defs>
<clipPath id="clip0_746_18">
<rect width="32" height="32" fill="white"/>
</clipPath>
</defs>
</svg>
