<svg xmlns="http://www.w3.org/2000/svg" version="1.1" xmlns:xlink="http://www.w3.org/1999/xlink" width="24" height="24" x="0" y="0" viewBox="0 0 512 512" style="enable-background:new 0 0 512 512" xml:space="preserve" class=""><g><path d="M129.586 3.691C64.84 17.2 13.758 70.332 2.492 135.883-7.512 194.098 12.97 251.64 57.293 289.813c19.203 16.55 30.383 43.94 32.035 72.183h60.664v-140.55l20.727-41.454h-60l40.855-81.71 26.836 13.417-19.144 38.293h60l-39.274 78.547v133.457h60.672c1.684-27.023 14.496-55.476 37.387-77.004 33.504-31.476 51.945-74.094 51.945-120 0-104.336-95.57-183.273-200.41-161.3zM269.996 414.496c0-12.426-10.074-22.5-22.5-22.5H82.492c-12.43 0-22.504 10.074-22.504 22.5 0 12.43 10.075 22.504 22.504 22.504h165.004c12.426 0 22.5-10.074 22.5-22.504zM217.492 512c12.43 0 22.504-10.074 22.504-22.5 0-12.43-10.074-22.5-22.504-22.5h-105c-12.426 0-22.5 10.07-22.5 22.5 0 12.426 10.074 22.5 22.5 22.5zm0 0" fill="#FFFFFF" opacity="1" data-original="#000000" class=""></path></g></svg>