<svg xmlns="http://www.w3.org/2000/svg" version="1.1" xmlns:xlink="http://www.w3.org/1999/xlink" width="28" height="28" x="0" y="0" viewBox="0 0 511.998 511.998" style="enable-background:new 0 0 512 512" xml:space="preserve"><g><path d="M255.999 145.152c-32.954 0-59.763 26.796-59.763 59.733 0 32.938 26.808 59.733 59.763 59.733 32.954 0 59.763-26.796 59.763-59.733s-26.809-59.733-59.763-59.733zm0 102.4c-23.542 0-42.696-19.142-42.696-42.667 0-23.525 19.154-42.667 42.696-42.667 23.542 0 42.696 19.142 42.696 42.667 0 23.525-19.154 42.667-42.696 42.667z" fill="#FFFFFF" opacity="1" data-original="#000000"></path><path d="M358.259 256.145c.025-1.824.14-3.638.14-5.464 0-97.529-35.142-188.008-96.417-248.237a8.548 8.548 0 0 0-11.967 0c-61.275 60.229-96.417 150.708-96.417 248.237 0 1.826.115 3.64.14 5.464-41.117 21.393-68.406 78.569-68.406 144.915a8.533 8.533 0 0 0 8.533 8.533h99.471c.01 0 .019.004.029.004h4.744l-17.831 29.704a8.527 8.527 0 0 0-.108 8.596 8.53 8.53 0 0 0 7.425 4.329h136.562a8.53 8.53 0 0 0 7.425-4.329 8.527 8.527 0 0 0-.108-8.596l-17.834-29.704h4.992c.01 0 .019-.004.029-.004h99.471a8.533 8.533 0 0 0 8.533-8.533c.001-66.345-27.288-123.522-68.406-144.915zM255.999 20.69c18.028 18.906 33.422 40.755 46.032 64.725h-92.065c12.611-23.971 28.005-45.82 46.033-64.725zM102.566 392.527c2.033-51.552 22.373-96.79 51.906-116.986 2.572 40.837 11.461 80.647 26.116 116.986h-78.022zM202.67 435.16l15.345-25.563h75.718l15.349 25.563H202.67zm110.383-42.629H198.945c-18.512-43.25-28.279-92.167-28.279-141.85 0-53.042 10.907-103.771 30.983-148.2h108.7c20.077 44.429 30.983 95.158 30.983 148.2 0 49.684-9.766 98.6-28.279 141.85zm18.357-.004c14.655-36.339 23.544-76.149 26.116-116.986 29.533 20.196 49.873 65.434 51.906 116.986H331.41zM255.999 460.806a8.533 8.533 0 0 0-8.533 8.533v34.125a8.533 8.533 0 0 0 17.066 0V469.34a8.533 8.533 0 0 0-8.533-8.534zM213.287 460.806a8.533 8.533 0 0 0-8.533 8.533v17.05a8.533 8.533 0 0 0 17.066 0v-17.05a8.534 8.534 0 0 0-8.533-8.533zM298.712 460.806a8.533 8.533 0 0 0-8.533 8.533v17.05a8.533 8.533 0 0 0 17.066 0v-17.05a8.534 8.534 0 0 0-8.533-8.533z" fill="#FFFFFF" opacity="1" data-original="#000000"></path></g></svg>